<svg xmlns="http://www.w3.org/2000/svg" viewBox="0 0 140 60" width="140" height="60">
  <defs>
    <radialGradient id="medusaGrad" cx="50%" cy="30%" r="70%">
      <stop offset="0%" style="stop-color:#8b9ddc"/>
      <stop offset="60%" style="stop-color:#667eea"/>
      <stop offset="100%" style="stop-color:#5a6fd8"/>
    </radialGradient>
    <linearGradient id="textGrad" x1="0%" y1="0%" x2="100%" y2="0%">
      <stop offset="0%" style="stop-color:#667eea"/>
      <stop offset="100%" style="stop-color:#8b9ddc"/>
    </linearGradient>
  </defs>
  
  <!-- Tentáculos de la medusa -->
  <path d="M12 35 Q8 42 6 48 Q4 52 7 54 Q10 52 12 48 Q14 42 16 38" fill="#667eea" opacity="0.7"/>
  <path d="M18 37 Q14 45 12 52 Q10 58 13 60 Q16 58 18 52 Q22 45 24 40" fill="#667eea" opacity="0.7"/>
  <path d="M26 37 Q30 45 32 52 Q34 58 31 60 Q28 58 26 52 Q22 45 20 40" fill="#667eea" opacity="0.7"/>
  <path d="M32 35 Q36 42 38 48 Q40 52 37 54 Q34 52 32 48 Q30 42 28 38" fill="#667eea" opacity="0.7"/>
  
  <!-- Cuerpo de la medusa -->
  <ellipse cx="22" cy="22" rx="18" ry="13" fill="url(#medusaGrad)"/>
  
  <!-- Patrón interior -->
  <ellipse cx="22" cy="20" rx="12" ry="8" fill="none" stroke="rgba(255,255,255,0.3)" stroke-width="1.5"/>
  
  <!-- Pequeña corona británica -->
  <path d="M20 10 L22 8 L24 10 L23 12 L21 12 Z" fill="url(#textGrad)" opacity="0.6"/>
  
  <!-- Ojos -->
  <ellipse cx="16" cy="19" rx="2.5" ry="3.5" fill="#2d3748"/>
  <ellipse cx="28" cy="19" rx="2.5" ry="3.5" fill="#2d3748"/>
  <ellipse cx="17" cy="17.5" rx="1" ry="1.3" fill="white"/>
  <ellipse cx="29" cy="17.5" rx="1" ry="1.3" fill="white"/>
  
  <!-- Sonrisa -->
  <path d="M18 25 Q22 28 26 25" stroke="#2d3748" stroke-width="1.5" fill="none" stroke-linecap="round"/>
  
  <!-- Texto "EngliFish" con estilo creativo -->
  <text x="50" y="20" font-family="Inter, Arial, sans-serif" font-size="14" font-weight="600" fill="url(#textGrad)">
    Engli<tspan fill="#4fd1c7">Fish</tspan>
  </text>
  
  <!-- Subtítulo con elementos de agua/fish -->
  <text x="50" y="35" font-family="Inter, Arial, sans-serif" font-size="9" font-weight="400" fill="#718096">
    Learn English ~ Fluidly
  </text>
  
  <!-- Pequeñas burbujas decorativas -->
  <circle cx="120" cy="15" r="1.5" fill="rgba(102, 126, 234, 0.3)"/>
  <circle cx="125" cy="12" r="1" fill="rgba(139, 157, 220, 0.4)"/>
  <circle cx="130" cy="18" r="2" fill="rgba(102, 126, 234, 0.2)"/>
  
  <!-- Ondas de agua sutiles -->
  <path d="M45 45 Q52 42 59 45 Q66 48 73 45" stroke="rgba(102, 126, 234, 0.2)" 
        stroke-width="1" fill="none" opacity="0.6"/>
  <path d="M80 47 Q85 44 90 47 Q95 50 100 47" stroke="rgba(102, 126, 234, 0.15)" 
        stroke-width="1" fill="none" opacity="0.7"/>
</svg>
